<mxfile host="app.diagrams.net" modified="2021-08-22T09:22:18.845Z" agent="5.0 (Macintosh; Intel Mac OS X 10_16_0) AppleWebKit/537.36 (KHTML, like Gecko) Chrome/81.0.4044.138 Safari/537.36" etag="UuFh6MAPnc8B_m9Ugt5X" version="14.9.8" type="github">
  <diagram id="C5RBs43oDa-KdzZeNtuy" name="Page-1">
    <mxGraphModel dx="1722" dy="1758" grid="1" gridSize="10" guides="1" tooltips="1" connect="1" arrows="1" fold="1" page="1" pageScale="1" pageWidth="827" pageHeight="1169" math="0" shadow="0">
      <root>
        <mxCell id="WIyWlLk6GJQsqaUBKTNV-0" />
        <mxCell id="WIyWlLk6GJQsqaUBKTNV-1" parent="WIyWlLk6GJQsqaUBKTNV-0" />
        <mxCell id="tNXuFwaImXzpJUykY29l-38" value="" style="rounded=0;whiteSpace=wrap;html=1;fillColor=#e1d5e7;strokeColor=#9673a6;" vertex="1" parent="WIyWlLk6GJQsqaUBKTNV-1">
          <mxGeometry x="-8" y="190" width="138" height="90" as="geometry" />
        </mxCell>
        <mxCell id="tNXuFwaImXzpJUykY29l-27" value="" style="rounded=0;whiteSpace=wrap;html=1;fillColor=#f8cecc;strokeColor=#b85450;" vertex="1" parent="WIyWlLk6GJQsqaUBKTNV-1">
          <mxGeometry x="-10" y="540" width="140" height="150" as="geometry" />
        </mxCell>
        <mxCell id="tNXuFwaImXzpJUykY29l-17" value="" style="rounded=0;whiteSpace=wrap;html=1;fontStyle=1;fillColor=#dae8fc;strokeColor=#6c8ebf;" vertex="1" parent="WIyWlLk6GJQsqaUBKTNV-1">
          <mxGeometry x="140" y="140" width="160" height="630" as="geometry" />
        </mxCell>
        <mxCell id="tNXuFwaImXzpJUykY29l-15" value="" style="rounded=0;whiteSpace=wrap;html=1;fillColor=#ffe6cc;strokeColor=#d79b00;" vertex="1" parent="WIyWlLk6GJQsqaUBKTNV-1">
          <mxGeometry x="140" y="60" width="160" height="70" as="geometry" />
        </mxCell>
        <mxCell id="tNXuFwaImXzpJUykY29l-3" style="edgeStyle=orthogonalEdgeStyle;rounded=0;orthogonalLoop=1;jettySize=auto;html=1;exitX=0.5;exitY=1;exitDx=0;exitDy=0;entryX=0.5;entryY=0;entryDx=0;entryDy=0;" edge="1" parent="WIyWlLk6GJQsqaUBKTNV-1" source="WIyWlLk6GJQsqaUBKTNV-3" target="tNXuFwaImXzpJUykY29l-0">
          <mxGeometry relative="1" as="geometry" />
        </mxCell>
        <mxCell id="WIyWlLk6GJQsqaUBKTNV-3" value="点位选择" style="rounded=1;whiteSpace=wrap;html=1;fontSize=12;glass=0;strokeWidth=1;shadow=0;" parent="WIyWlLk6GJQsqaUBKTNV-1" vertex="1">
          <mxGeometry x="160" y="80" width="120" height="40" as="geometry" />
        </mxCell>
        <mxCell id="tNXuFwaImXzpJUykY29l-6" style="edgeStyle=orthogonalEdgeStyle;rounded=0;orthogonalLoop=1;jettySize=auto;html=1;exitX=0.5;exitY=1;exitDx=0;exitDy=0;entryX=0.5;entryY=0;entryDx=0;entryDy=0;" edge="1" parent="WIyWlLk6GJQsqaUBKTNV-1" source="WIyWlLk6GJQsqaUBKTNV-11" target="tNXuFwaImXzpJUykY29l-5">
          <mxGeometry relative="1" as="geometry" />
        </mxCell>
        <mxCell id="tNXuFwaImXzpJUykY29l-41" style="edgeStyle=orthogonalEdgeStyle;rounded=0;orthogonalLoop=1;jettySize=auto;html=1;exitX=0;exitY=0.5;exitDx=0;exitDy=0;entryX=1;entryY=0.5;entryDx=0;entryDy=0;" edge="1" parent="WIyWlLk6GJQsqaUBKTNV-1">
          <mxGeometry relative="1" as="geometry">
            <mxPoint x="160" y="232" as="sourcePoint" />
            <mxPoint x="120" y="232" as="targetPoint" />
          </mxGeometry>
        </mxCell>
        <mxCell id="WIyWlLk6GJQsqaUBKTNV-11" value="广告召回" style="rounded=1;whiteSpace=wrap;html=1;fontSize=12;glass=0;strokeWidth=1;shadow=0;" parent="WIyWlLk6GJQsqaUBKTNV-1" vertex="1">
          <mxGeometry x="160" y="220" width="120" height="40" as="geometry" />
        </mxCell>
        <mxCell id="tNXuFwaImXzpJUykY29l-4" style="edgeStyle=orthogonalEdgeStyle;rounded=0;orthogonalLoop=1;jettySize=auto;html=1;exitX=0.5;exitY=1;exitDx=0;exitDy=0;entryX=0.5;entryY=0;entryDx=0;entryDy=0;" edge="1" parent="WIyWlLk6GJQsqaUBKTNV-1" source="tNXuFwaImXzpJUykY29l-0" target="WIyWlLk6GJQsqaUBKTNV-11">
          <mxGeometry relative="1" as="geometry" />
        </mxCell>
        <mxCell id="tNXuFwaImXzpJUykY29l-0" value="UMS" style="rounded=1;whiteSpace=wrap;html=1;fontSize=12;glass=0;strokeWidth=1;shadow=0;" vertex="1" parent="WIyWlLk6GJQsqaUBKTNV-1">
          <mxGeometry x="160" y="160" width="120" height="40" as="geometry" />
        </mxCell>
        <mxCell id="tNXuFwaImXzpJUykY29l-2" style="edgeStyle=orthogonalEdgeStyle;rounded=0;orthogonalLoop=1;jettySize=auto;html=1;exitX=0.5;exitY=1;exitDx=0;exitDy=0;entryX=0.5;entryY=0;entryDx=0;entryDy=0;" edge="1" parent="WIyWlLk6GJQsqaUBKTNV-1" source="tNXuFwaImXzpJUykY29l-1" target="WIyWlLk6GJQsqaUBKTNV-3">
          <mxGeometry relative="1" as="geometry" />
        </mxCell>
        <mxCell id="tNXuFwaImXzpJUykY29l-1" value="TanxDeal" style="ellipse;whiteSpace=wrap;html=1;aspect=fixed;" vertex="1" parent="WIyWlLk6GJQsqaUBKTNV-1">
          <mxGeometry x="190" y="-10" width="60" height="60" as="geometry" />
        </mxCell>
        <mxCell id="tNXuFwaImXzpJUykY29l-8" style="edgeStyle=orthogonalEdgeStyle;rounded=0;orthogonalLoop=1;jettySize=auto;html=1;exitX=0.5;exitY=1;exitDx=0;exitDy=0;entryX=0.5;entryY=0;entryDx=0;entryDy=0;" edge="1" parent="WIyWlLk6GJQsqaUBKTNV-1" source="tNXuFwaImXzpJUykY29l-5" target="tNXuFwaImXzpJUykY29l-7">
          <mxGeometry relative="1" as="geometry" />
        </mxCell>
        <mxCell id="tNXuFwaImXzpJUykY29l-5" value="优先级排序" style="rounded=1;whiteSpace=wrap;html=1;fontSize=12;glass=0;strokeWidth=1;shadow=0;" vertex="1" parent="WIyWlLk6GJQsqaUBKTNV-1">
          <mxGeometry x="160" y="290" width="120" height="40" as="geometry" />
        </mxCell>
        <mxCell id="tNXuFwaImXzpJUykY29l-10" style="edgeStyle=orthogonalEdgeStyle;rounded=0;orthogonalLoop=1;jettySize=auto;html=1;exitX=0.5;exitY=1;exitDx=0;exitDy=0;entryX=0.5;entryY=0;entryDx=0;entryDy=0;" edge="1" parent="WIyWlLk6GJQsqaUBKTNV-1" source="tNXuFwaImXzpJUykY29l-7" target="tNXuFwaImXzpJUykY29l-9">
          <mxGeometry relative="1" as="geometry" />
        </mxCell>
        <mxCell id="tNXuFwaImXzpJUykY29l-7" value="流量分层售卖" style="rounded=1;whiteSpace=wrap;html=1;fontSize=12;glass=0;strokeWidth=1;shadow=0;" vertex="1" parent="WIyWlLk6GJQsqaUBKTNV-1">
          <mxGeometry x="160" y="360" width="120" height="40" as="geometry" />
        </mxCell>
        <mxCell id="tNXuFwaImXzpJUykY29l-22" style="edgeStyle=orthogonalEdgeStyle;rounded=0;orthogonalLoop=1;jettySize=auto;html=1;exitX=0.5;exitY=1;exitDx=0;exitDy=0;entryX=0.5;entryY=0;entryDx=0;entryDy=0;" edge="1" parent="WIyWlLk6GJQsqaUBKTNV-1" source="tNXuFwaImXzpJUykY29l-9" target="tNXuFwaImXzpJUykY29l-20">
          <mxGeometry relative="1" as="geometry" />
        </mxCell>
        <mxCell id="tNXuFwaImXzpJUykY29l-9" value="引擎自控量&lt;br&gt;（保退回率）" style="rounded=1;whiteSpace=wrap;html=1;fontSize=12;glass=0;strokeWidth=1;shadow=0;" vertex="1" parent="WIyWlLk6GJQsqaUBKTNV-1">
          <mxGeometry x="160" y="430" width="120" height="40" as="geometry" />
        </mxCell>
        <mxCell id="tNXuFwaImXzpJUykY29l-14" style="edgeStyle=orthogonalEdgeStyle;rounded=0;orthogonalLoop=1;jettySize=auto;html=1;exitX=0.5;exitY=1;exitDx=0;exitDy=0;entryX=0.5;entryY=0;entryDx=0;entryDy=0;" edge="1" parent="WIyWlLk6GJQsqaUBKTNV-1" source="tNXuFwaImXzpJUykY29l-11" target="tNXuFwaImXzpJUykY29l-13">
          <mxGeometry relative="1" as="geometry" />
        </mxCell>
        <mxCell id="tNXuFwaImXzpJUykY29l-11" value="纵向pacing" style="rounded=1;whiteSpace=wrap;html=1;fontSize=12;glass=0;strokeWidth=1;shadow=0;" vertex="1" parent="WIyWlLk6GJQsqaUBKTNV-1">
          <mxGeometry x="160" y="570" width="120" height="40" as="geometry" />
        </mxCell>
        <mxCell id="tNXuFwaImXzpJUykY29l-36" style="edgeStyle=orthogonalEdgeStyle;rounded=0;orthogonalLoop=1;jettySize=auto;html=1;exitX=0.5;exitY=1;exitDx=0;exitDy=0;entryX=0.5;entryY=0;entryDx=0;entryDy=0;" edge="1" parent="WIyWlLk6GJQsqaUBKTNV-1" source="tNXuFwaImXzpJUykY29l-13" target="tNXuFwaImXzpJUykY29l-34">
          <mxGeometry relative="1" as="geometry" />
        </mxCell>
        <mxCell id="tNXuFwaImXzpJUykY29l-13" value="横向pacing" style="rounded=1;whiteSpace=wrap;html=1;fontSize=12;glass=0;strokeWidth=1;shadow=0;" vertex="1" parent="WIyWlLk6GJQsqaUBKTNV-1">
          <mxGeometry x="160" y="640" width="120" height="40" as="geometry" />
        </mxCell>
        <mxCell id="tNXuFwaImXzpJUykY29l-23" style="edgeStyle=orthogonalEdgeStyle;rounded=0;orthogonalLoop=1;jettySize=auto;html=1;exitX=0.5;exitY=1;exitDx=0;exitDy=0;entryX=0.5;entryY=0;entryDx=0;entryDy=0;" edge="1" parent="WIyWlLk6GJQsqaUBKTNV-1" source="tNXuFwaImXzpJUykY29l-20" target="tNXuFwaImXzpJUykY29l-11">
          <mxGeometry relative="1" as="geometry" />
        </mxCell>
        <mxCell id="tNXuFwaImXzpJUykY29l-24" value="否" style="edgeLabel;html=1;align=center;verticalAlign=middle;resizable=0;points=[];" vertex="1" connectable="0" parent="tNXuFwaImXzpJUykY29l-23">
          <mxGeometry x="-0.35" y="-4" relative="1" as="geometry">
            <mxPoint x="4" as="offset" />
          </mxGeometry>
        </mxCell>
        <mxCell id="tNXuFwaImXzpJUykY29l-28" style="edgeStyle=orthogonalEdgeStyle;rounded=0;orthogonalLoop=1;jettySize=auto;html=1;exitX=0;exitY=0.5;exitDx=0;exitDy=0;entryX=0.5;entryY=0;entryDx=0;entryDy=0;" edge="1" parent="WIyWlLk6GJQsqaUBKTNV-1" source="tNXuFwaImXzpJUykY29l-20" target="tNXuFwaImXzpJUykY29l-26">
          <mxGeometry relative="1" as="geometry" />
        </mxCell>
        <mxCell id="tNXuFwaImXzpJUykY29l-20" value="智能创意？" style="rhombus;whiteSpace=wrap;html=1;" vertex="1" parent="WIyWlLk6GJQsqaUBKTNV-1">
          <mxGeometry x="170" y="490" width="100" height="40" as="geometry" />
        </mxCell>
        <mxCell id="tNXuFwaImXzpJUykY29l-37" style="edgeStyle=orthogonalEdgeStyle;rounded=0;orthogonalLoop=1;jettySize=auto;html=1;exitX=0.5;exitY=1;exitDx=0;exitDy=0;entryX=0;entryY=0.5;entryDx=0;entryDy=0;" edge="1" parent="WIyWlLk6GJQsqaUBKTNV-1" source="tNXuFwaImXzpJUykY29l-25" target="tNXuFwaImXzpJUykY29l-34">
          <mxGeometry relative="1" as="geometry" />
        </mxCell>
        <mxCell id="tNXuFwaImXzpJUykY29l-25" value="横向pacing" style="rounded=1;whiteSpace=wrap;html=1;fontSize=12;glass=0;strokeWidth=1;shadow=0;" vertex="1" parent="WIyWlLk6GJQsqaUBKTNV-1">
          <mxGeometry y="640" width="120" height="40" as="geometry" />
        </mxCell>
        <mxCell id="tNXuFwaImXzpJUykY29l-29" style="edgeStyle=orthogonalEdgeStyle;rounded=0;orthogonalLoop=1;jettySize=auto;html=1;exitX=0.5;exitY=1;exitDx=0;exitDy=0;entryX=0.5;entryY=0;entryDx=0;entryDy=0;" edge="1" parent="WIyWlLk6GJQsqaUBKTNV-1" source="tNXuFwaImXzpJUykY29l-26" target="tNXuFwaImXzpJUykY29l-25">
          <mxGeometry relative="1" as="geometry" />
        </mxCell>
        <mxCell id="tNXuFwaImXzpJUykY29l-26" value="纵向pacing" style="rounded=1;whiteSpace=wrap;html=1;fontSize=12;glass=0;strokeWidth=1;shadow=0;" vertex="1" parent="WIyWlLk6GJQsqaUBKTNV-1">
          <mxGeometry y="570" width="120" height="40" as="geometry" />
        </mxCell>
        <mxCell id="tNXuFwaImXzpJUykY29l-30" value="Ctrl" style="text;html=1;resizable=0;autosize=1;align=center;verticalAlign=middle;points=[];fillColor=none;strokeColor=none;rounded=0;" vertex="1" parent="WIyWlLk6GJQsqaUBKTNV-1">
          <mxGeometry x="140" y="140" width="30" height="20" as="geometry" />
        </mxCell>
        <mxCell id="tNXuFwaImXzpJUykY29l-31" value="Vse" style="text;html=1;resizable=0;autosize=1;align=center;verticalAlign=middle;points=[];fillColor=none;strokeColor=none;rounded=0;" vertex="1" parent="WIyWlLk6GJQsqaUBKTNV-1">
          <mxGeometry x="-10" y="540" width="40" height="20" as="geometry" />
        </mxCell>
        <mxCell id="tNXuFwaImXzpJUykY29l-32" value="Adapter" style="text;html=1;resizable=0;autosize=1;align=center;verticalAlign=middle;points=[];fillColor=none;strokeColor=none;rounded=0;" vertex="1" parent="WIyWlLk6GJQsqaUBKTNV-1">
          <mxGeometry x="135" y="60" width="60" height="20" as="geometry" />
        </mxCell>
        <mxCell id="tNXuFwaImXzpJUykY29l-34" value="物料拼装&lt;br&gt;落地页、点击串组装" style="rounded=1;whiteSpace=wrap;html=1;fontSize=12;glass=0;strokeWidth=1;shadow=0;" vertex="1" parent="WIyWlLk6GJQsqaUBKTNV-1">
          <mxGeometry x="160" y="710" width="120" height="40" as="geometry" />
        </mxCell>
        <mxCell id="tNXuFwaImXzpJUykY29l-39" value="Sn" style="text;html=1;resizable=0;autosize=1;align=center;verticalAlign=middle;points=[];fillColor=none;strokeColor=none;rounded=0;" vertex="1" parent="WIyWlLk6GJQsqaUBKTNV-1">
          <mxGeometry x="-10" y="193" width="30" height="20" as="geometry" />
        </mxCell>
        <mxCell id="tNXuFwaImXzpJUykY29l-42" style="edgeStyle=orthogonalEdgeStyle;rounded=0;orthogonalLoop=1;jettySize=auto;html=1;exitX=1;exitY=0.75;exitDx=0;exitDy=0;entryX=0;entryY=0.75;entryDx=0;entryDy=0;" edge="1" parent="WIyWlLk6GJQsqaUBKTNV-1" source="tNXuFwaImXzpJUykY29l-40" target="WIyWlLk6GJQsqaUBKTNV-11">
          <mxGeometry relative="1" as="geometry" />
        </mxCell>
        <mxCell id="tNXuFwaImXzpJUykY29l-40" value="广告召回" style="rounded=1;whiteSpace=wrap;html=1;fontSize=12;glass=0;strokeWidth=1;shadow=0;" vertex="1" parent="WIyWlLk6GJQsqaUBKTNV-1">
          <mxGeometry y="220" width="120" height="40" as="geometry" />
        </mxCell>
        <mxCell id="tNXuFwaImXzpJUykY29l-43" value="" style="rounded=0;whiteSpace=wrap;html=1;fillColor=#e1d5e7;strokeColor=#9673a6;" vertex="1" parent="WIyWlLk6GJQsqaUBKTNV-1">
          <mxGeometry x="842" y="140" width="153" height="650" as="geometry" />
        </mxCell>
        <mxCell id="tNXuFwaImXzpJUykY29l-45" value="" style="rounded=0;whiteSpace=wrap;html=1;fontStyle=1;fillColor=#dae8fc;strokeColor=#6c8ebf;" vertex="1" parent="WIyWlLk6GJQsqaUBKTNV-1">
          <mxGeometry x="505" y="140" width="160" height="810" as="geometry" />
        </mxCell>
        <mxCell id="tNXuFwaImXzpJUykY29l-46" value="" style="rounded=0;whiteSpace=wrap;html=1;fillColor=#ffe6cc;strokeColor=#d79b00;" vertex="1" parent="WIyWlLk6GJQsqaUBKTNV-1">
          <mxGeometry x="505" y="60" width="160" height="70" as="geometry" />
        </mxCell>
        <mxCell id="tNXuFwaImXzpJUykY29l-99" style="edgeStyle=orthogonalEdgeStyle;rounded=0;orthogonalLoop=1;jettySize=auto;html=1;exitX=0.5;exitY=1;exitDx=0;exitDy=0;" edge="1" parent="WIyWlLk6GJQsqaUBKTNV-1" source="tNXuFwaImXzpJUykY29l-48" target="tNXuFwaImXzpJUykY29l-51">
          <mxGeometry relative="1" as="geometry" />
        </mxCell>
        <mxCell id="tNXuFwaImXzpJUykY29l-48" value="点位选择" style="rounded=1;whiteSpace=wrap;html=1;fontSize=12;glass=0;strokeWidth=1;shadow=0;" vertex="1" parent="WIyWlLk6GJQsqaUBKTNV-1">
          <mxGeometry x="525" y="80" width="120" height="40" as="geometry" />
        </mxCell>
        <mxCell id="tNXuFwaImXzpJUykY29l-128" style="edgeStyle=orthogonalEdgeStyle;rounded=0;orthogonalLoop=1;jettySize=auto;html=1;exitX=1;exitY=0.5;exitDx=0;exitDy=0;entryX=0;entryY=0.5;entryDx=0;entryDy=0;" edge="1" parent="WIyWlLk6GJQsqaUBKTNV-1" source="tNXuFwaImXzpJUykY29l-51" target="tNXuFwaImXzpJUykY29l-53">
          <mxGeometry relative="1" as="geometry" />
        </mxCell>
        <mxCell id="tNXuFwaImXzpJUykY29l-51" value="广告召回" style="rounded=1;whiteSpace=wrap;html=1;fontSize=12;glass=0;strokeWidth=1;shadow=0;" vertex="1" parent="WIyWlLk6GJQsqaUBKTNV-1">
          <mxGeometry x="525" y="163" width="120" height="40" as="geometry" />
        </mxCell>
        <mxCell id="tNXuFwaImXzpJUykY29l-119" style="edgeStyle=orthogonalEdgeStyle;rounded=0;orthogonalLoop=1;jettySize=auto;html=1;exitX=0.5;exitY=1;exitDx=0;exitDy=0;entryX=0.5;entryY=0;entryDx=0;entryDy=0;" edge="1" parent="WIyWlLk6GJQsqaUBKTNV-1" source="tNXuFwaImXzpJUykY29l-53" target="tNXuFwaImXzpJUykY29l-118">
          <mxGeometry relative="1" as="geometry" />
        </mxCell>
        <mxCell id="tNXuFwaImXzpJUykY29l-131" style="edgeStyle=orthogonalEdgeStyle;rounded=0;orthogonalLoop=1;jettySize=auto;html=1;exitX=1;exitY=0.25;exitDx=0;exitDy=0;entryX=0;entryY=0.25;entryDx=0;entryDy=0;" edge="1" parent="WIyWlLk6GJQsqaUBKTNV-1" source="tNXuFwaImXzpJUykY29l-53" target="tNXuFwaImXzpJUykY29l-130">
          <mxGeometry relative="1" as="geometry" />
        </mxCell>
        <mxCell id="tNXuFwaImXzpJUykY29l-53" value="UMS" style="rounded=1;whiteSpace=wrap;html=1;fontSize=12;glass=0;strokeWidth=1;shadow=0;" vertex="1" parent="WIyWlLk6GJQsqaUBKTNV-1">
          <mxGeometry x="860" y="163" width="120" height="40" as="geometry" />
        </mxCell>
        <mxCell id="tNXuFwaImXzpJUykY29l-54" style="edgeStyle=orthogonalEdgeStyle;rounded=0;orthogonalLoop=1;jettySize=auto;html=1;exitX=0.5;exitY=1;exitDx=0;exitDy=0;entryX=0.5;entryY=0;entryDx=0;entryDy=0;" edge="1" parent="WIyWlLk6GJQsqaUBKTNV-1" source="tNXuFwaImXzpJUykY29l-55" target="tNXuFwaImXzpJUykY29l-48">
          <mxGeometry relative="1" as="geometry" />
        </mxCell>
        <mxCell id="tNXuFwaImXzpJUykY29l-55" value="TanxDeal" style="ellipse;whiteSpace=wrap;html=1;aspect=fixed;" vertex="1" parent="WIyWlLk6GJQsqaUBKTNV-1">
          <mxGeometry x="555" y="-10" width="60" height="60" as="geometry" />
        </mxCell>
        <mxCell id="tNXuFwaImXzpJUykY29l-74" value="Ctrl" style="text;html=1;resizable=0;autosize=1;align=center;verticalAlign=middle;points=[];fillColor=none;strokeColor=none;rounded=0;" vertex="1" parent="WIyWlLk6GJQsqaUBKTNV-1">
          <mxGeometry x="505" y="140" width="30" height="20" as="geometry" />
        </mxCell>
        <mxCell id="tNXuFwaImXzpJUykY29l-76" value="Adapter" style="text;html=1;resizable=0;autosize=1;align=center;verticalAlign=middle;points=[];fillColor=none;strokeColor=none;rounded=0;" vertex="1" parent="WIyWlLk6GJQsqaUBKTNV-1">
          <mxGeometry x="500" y="60" width="60" height="20" as="geometry" />
        </mxCell>
        <mxCell id="tNXuFwaImXzpJUykY29l-127" style="edgeStyle=orthogonalEdgeStyle;rounded=0;orthogonalLoop=1;jettySize=auto;html=1;exitX=0.5;exitY=1;exitDx=0;exitDy=0;entryX=0.5;entryY=0;entryDx=0;entryDy=0;" edge="1" parent="WIyWlLk6GJQsqaUBKTNV-1" source="tNXuFwaImXzpJUykY29l-77" target="tNXuFwaImXzpJUykY29l-126">
          <mxGeometry relative="1" as="geometry" />
        </mxCell>
        <mxCell id="tNXuFwaImXzpJUykY29l-77" value="物料拼装" style="rounded=1;whiteSpace=wrap;html=1;fontSize=12;glass=0;strokeWidth=1;shadow=0;" vertex="1" parent="WIyWlLk6GJQsqaUBKTNV-1">
          <mxGeometry x="525" y="830" width="120" height="40" as="geometry" />
        </mxCell>
        <mxCell id="tNXuFwaImXzpJUykY29l-78" value="Sn" style="text;html=1;resizable=0;autosize=1;align=center;verticalAlign=middle;points=[];fillColor=none;strokeColor=none;rounded=0;" vertex="1" parent="WIyWlLk6GJQsqaUBKTNV-1">
          <mxGeometry x="840" y="143" width="30" height="20" as="geometry" />
        </mxCell>
        <mxCell id="tNXuFwaImXzpJUykY29l-121" style="edgeStyle=orthogonalEdgeStyle;rounded=0;orthogonalLoop=1;jettySize=auto;html=1;exitX=0.5;exitY=1;exitDx=0;exitDy=0;entryX=0.5;entryY=0;entryDx=0;entryDy=0;" edge="1" parent="WIyWlLk6GJQsqaUBKTNV-1" source="tNXuFwaImXzpJUykY29l-80" target="tNXuFwaImXzpJUykY29l-83">
          <mxGeometry relative="1" as="geometry" />
        </mxCell>
        <mxCell id="tNXuFwaImXzpJUykY29l-80" value="广告召回" style="rounded=1;whiteSpace=wrap;html=1;fontSize=12;glass=0;strokeWidth=1;shadow=0;" vertex="1" parent="WIyWlLk6GJQsqaUBKTNV-1">
          <mxGeometry x="860" y="280" width="120" height="40" as="geometry" />
        </mxCell>
        <mxCell id="tNXuFwaImXzpJUykY29l-81" value="" style="rounded=0;whiteSpace=wrap;html=1;fillColor=#f8cecc;strokeColor=#b85450;" vertex="1" parent="WIyWlLk6GJQsqaUBKTNV-1">
          <mxGeometry x="690" y="570" width="140" height="150" as="geometry" />
        </mxCell>
        <mxCell id="tNXuFwaImXzpJUykY29l-82" style="edgeStyle=orthogonalEdgeStyle;rounded=0;orthogonalLoop=1;jettySize=auto;html=1;exitX=0.5;exitY=1;exitDx=0;exitDy=0;entryX=0.5;entryY=0;entryDx=0;entryDy=0;" edge="1" parent="WIyWlLk6GJQsqaUBKTNV-1" source="tNXuFwaImXzpJUykY29l-83" target="tNXuFwaImXzpJUykY29l-85">
          <mxGeometry relative="1" as="geometry" />
        </mxCell>
        <mxCell id="tNXuFwaImXzpJUykY29l-83" value="优先级排序" style="rounded=1;whiteSpace=wrap;html=1;fontSize=12;glass=0;strokeWidth=1;shadow=0;" vertex="1" parent="WIyWlLk6GJQsqaUBKTNV-1">
          <mxGeometry x="860" y="340" width="120" height="40" as="geometry" />
        </mxCell>
        <mxCell id="tNXuFwaImXzpJUykY29l-84" style="edgeStyle=orthogonalEdgeStyle;rounded=0;orthogonalLoop=1;jettySize=auto;html=1;exitX=0.5;exitY=1;exitDx=0;exitDy=0;entryX=0.5;entryY=0;entryDx=0;entryDy=0;" edge="1" parent="WIyWlLk6GJQsqaUBKTNV-1" source="tNXuFwaImXzpJUykY29l-85" target="tNXuFwaImXzpJUykY29l-87">
          <mxGeometry relative="1" as="geometry" />
        </mxCell>
        <mxCell id="tNXuFwaImXzpJUykY29l-85" value="流量分层售卖" style="rounded=1;whiteSpace=wrap;html=1;fontSize=12;glass=0;strokeWidth=1;shadow=0;" vertex="1" parent="WIyWlLk6GJQsqaUBKTNV-1">
          <mxGeometry x="860" y="400" width="120" height="40" as="geometry" />
        </mxCell>
        <mxCell id="tNXuFwaImXzpJUykY29l-86" style="edgeStyle=orthogonalEdgeStyle;rounded=0;orthogonalLoop=1;jettySize=auto;html=1;exitX=0.5;exitY=1;exitDx=0;exitDy=0;entryX=0.5;entryY=0;entryDx=0;entryDy=0;" edge="1" parent="WIyWlLk6GJQsqaUBKTNV-1" source="tNXuFwaImXzpJUykY29l-87" target="tNXuFwaImXzpJUykY29l-94">
          <mxGeometry relative="1" as="geometry" />
        </mxCell>
        <mxCell id="tNXuFwaImXzpJUykY29l-87" value="PDB保退回率" style="rounded=1;whiteSpace=wrap;html=1;fontSize=12;glass=0;strokeWidth=1;shadow=0;fillColor=#00FFFF;" vertex="1" parent="WIyWlLk6GJQsqaUBKTNV-1">
          <mxGeometry x="860" y="460" width="120" height="40" as="geometry" />
        </mxCell>
        <mxCell id="tNXuFwaImXzpJUykY29l-88" style="edgeStyle=orthogonalEdgeStyle;rounded=0;orthogonalLoop=1;jettySize=auto;html=1;exitX=0.5;exitY=1;exitDx=0;exitDy=0;entryX=0.5;entryY=0;entryDx=0;entryDy=0;" edge="1" parent="WIyWlLk6GJQsqaUBKTNV-1" source="tNXuFwaImXzpJUykY29l-89" target="tNXuFwaImXzpJUykY29l-90">
          <mxGeometry relative="1" as="geometry" />
        </mxCell>
        <mxCell id="tNXuFwaImXzpJUykY29l-89" value="纵向pacing" style="rounded=1;whiteSpace=wrap;html=1;fontSize=12;glass=0;strokeWidth=1;shadow=0;" vertex="1" parent="WIyWlLk6GJQsqaUBKTNV-1">
          <mxGeometry x="860" y="600" width="120" height="40" as="geometry" />
        </mxCell>
        <mxCell id="tNXuFwaImXzpJUykY29l-124" style="edgeStyle=orthogonalEdgeStyle;rounded=0;orthogonalLoop=1;jettySize=auto;html=1;exitX=0.5;exitY=1;exitDx=0;exitDy=0;entryX=0.5;entryY=0;entryDx=0;entryDy=0;" edge="1" parent="WIyWlLk6GJQsqaUBKTNV-1" source="tNXuFwaImXzpJUykY29l-90" target="tNXuFwaImXzpJUykY29l-122">
          <mxGeometry relative="1" as="geometry" />
        </mxCell>
        <mxCell id="tNXuFwaImXzpJUykY29l-90" value="横向pacing" style="rounded=1;whiteSpace=wrap;html=1;fontSize=12;glass=0;strokeWidth=1;shadow=0;" vertex="1" parent="WIyWlLk6GJQsqaUBKTNV-1">
          <mxGeometry x="860" y="670" width="120" height="40" as="geometry" />
        </mxCell>
        <mxCell id="tNXuFwaImXzpJUykY29l-91" style="edgeStyle=orthogonalEdgeStyle;rounded=0;orthogonalLoop=1;jettySize=auto;html=1;exitX=0.5;exitY=1;exitDx=0;exitDy=0;entryX=0.5;entryY=0;entryDx=0;entryDy=0;" edge="1" parent="WIyWlLk6GJQsqaUBKTNV-1" source="tNXuFwaImXzpJUykY29l-94" target="tNXuFwaImXzpJUykY29l-89">
          <mxGeometry relative="1" as="geometry" />
        </mxCell>
        <mxCell id="tNXuFwaImXzpJUykY29l-92" value="否" style="edgeLabel;html=1;align=center;verticalAlign=middle;resizable=0;points=[];" vertex="1" connectable="0" parent="tNXuFwaImXzpJUykY29l-91">
          <mxGeometry x="-0.35" y="-4" relative="1" as="geometry">
            <mxPoint x="4" as="offset" />
          </mxGeometry>
        </mxCell>
        <mxCell id="tNXuFwaImXzpJUykY29l-93" style="edgeStyle=orthogonalEdgeStyle;rounded=0;orthogonalLoop=1;jettySize=auto;html=1;exitX=0;exitY=0.5;exitDx=0;exitDy=0;entryX=0.5;entryY=0;entryDx=0;entryDy=0;" edge="1" parent="WIyWlLk6GJQsqaUBKTNV-1" source="tNXuFwaImXzpJUykY29l-94" target="tNXuFwaImXzpJUykY29l-97">
          <mxGeometry relative="1" as="geometry" />
        </mxCell>
        <mxCell id="tNXuFwaImXzpJUykY29l-94" value="智能创意？" style="rhombus;whiteSpace=wrap;html=1;" vertex="1" parent="WIyWlLk6GJQsqaUBKTNV-1">
          <mxGeometry x="870" y="520" width="100" height="40" as="geometry" />
        </mxCell>
        <mxCell id="tNXuFwaImXzpJUykY29l-123" style="edgeStyle=orthogonalEdgeStyle;rounded=0;orthogonalLoop=1;jettySize=auto;html=1;exitX=0.5;exitY=1;exitDx=0;exitDy=0;entryX=0;entryY=0.5;entryDx=0;entryDy=0;" edge="1" parent="WIyWlLk6GJQsqaUBKTNV-1" source="tNXuFwaImXzpJUykY29l-95" target="tNXuFwaImXzpJUykY29l-122">
          <mxGeometry relative="1" as="geometry" />
        </mxCell>
        <mxCell id="tNXuFwaImXzpJUykY29l-137" value="" style="edgeStyle=orthogonalEdgeStyle;rounded=0;orthogonalLoop=1;jettySize=auto;html=1;" edge="1" parent="WIyWlLk6GJQsqaUBKTNV-1" source="tNXuFwaImXzpJUykY29l-95">
          <mxGeometry relative="1" as="geometry">
            <mxPoint x="760" y="590" as="targetPoint" />
          </mxGeometry>
        </mxCell>
        <mxCell id="tNXuFwaImXzpJUykY29l-95" value="横向pacing" style="rounded=1;whiteSpace=wrap;html=1;fontSize=12;glass=0;strokeWidth=1;shadow=0;" vertex="1" parent="WIyWlLk6GJQsqaUBKTNV-1">
          <mxGeometry x="700" y="670" width="120" height="40" as="geometry" />
        </mxCell>
        <mxCell id="tNXuFwaImXzpJUykY29l-96" style="edgeStyle=orthogonalEdgeStyle;rounded=0;orthogonalLoop=1;jettySize=auto;html=1;exitX=0.5;exitY=1;exitDx=0;exitDy=0;entryX=0.5;entryY=0;entryDx=0;entryDy=0;" edge="1" parent="WIyWlLk6GJQsqaUBKTNV-1" source="tNXuFwaImXzpJUykY29l-97" target="tNXuFwaImXzpJUykY29l-95">
          <mxGeometry relative="1" as="geometry" />
        </mxCell>
        <mxCell id="tNXuFwaImXzpJUykY29l-97" value="纵向pacing" style="rounded=1;whiteSpace=wrap;html=1;fontSize=12;glass=0;strokeWidth=1;shadow=0;" vertex="1" parent="WIyWlLk6GJQsqaUBKTNV-1">
          <mxGeometry x="700" y="600" width="120" height="40" as="geometry" />
        </mxCell>
        <mxCell id="tNXuFwaImXzpJUykY29l-98" value="Vse" style="text;html=1;resizable=0;autosize=1;align=center;verticalAlign=middle;points=[];fillColor=none;strokeColor=none;rounded=0;" vertex="1" parent="WIyWlLk6GJQsqaUBKTNV-1">
          <mxGeometry x="690" y="570" width="40" height="20" as="geometry" />
        </mxCell>
        <mxCell id="tNXuFwaImXzpJUykY29l-120" style="edgeStyle=orthogonalEdgeStyle;rounded=0;orthogonalLoop=1;jettySize=auto;html=1;exitX=0.5;exitY=1;exitDx=0;exitDy=0;entryX=0.5;entryY=0;entryDx=0;entryDy=0;" edge="1" parent="WIyWlLk6GJQsqaUBKTNV-1" source="tNXuFwaImXzpJUykY29l-118" target="tNXuFwaImXzpJUykY29l-80">
          <mxGeometry relative="1" as="geometry" />
        </mxCell>
        <mxCell id="tNXuFwaImXzpJUykY29l-118" value="点位精选" style="rounded=1;whiteSpace=wrap;html=1;fontSize=12;glass=0;strokeWidth=1;shadow=0;fillColor=#00FFFF;" vertex="1" parent="WIyWlLk6GJQsqaUBKTNV-1">
          <mxGeometry x="860" y="220" width="120" height="40" as="geometry" />
        </mxCell>
        <mxCell id="tNXuFwaImXzpJUykY29l-125" style="edgeStyle=orthogonalEdgeStyle;rounded=0;orthogonalLoop=1;jettySize=auto;html=1;exitX=0.5;exitY=1;exitDx=0;exitDy=0;entryX=0.5;entryY=0;entryDx=0;entryDy=0;" edge="1" parent="WIyWlLk6GJQsqaUBKTNV-1" source="tNXuFwaImXzpJUykY29l-122" target="tNXuFwaImXzpJUykY29l-77">
          <mxGeometry relative="1" as="geometry" />
        </mxCell>
        <mxCell id="tNXuFwaImXzpJUykY29l-122" value="召回结果" style="rounded=1;whiteSpace=wrap;html=1;fontSize=12;glass=0;strokeWidth=1;shadow=0;" vertex="1" parent="WIyWlLk6GJQsqaUBKTNV-1">
          <mxGeometry x="860" y="740" width="120" height="40" as="geometry" />
        </mxCell>
        <mxCell id="tNXuFwaImXzpJUykY29l-126" value="落地页、点击串组装" style="rounded=1;whiteSpace=wrap;html=1;fontSize=12;glass=0;strokeWidth=1;shadow=0;" vertex="1" parent="WIyWlLk6GJQsqaUBKTNV-1">
          <mxGeometry x="525" y="890" width="120" height="40" as="geometry" />
        </mxCell>
        <mxCell id="tNXuFwaImXzpJUykY29l-132" style="edgeStyle=orthogonalEdgeStyle;rounded=0;orthogonalLoop=1;jettySize=auto;html=1;exitX=0;exitY=0.75;exitDx=0;exitDy=0;entryX=1;entryY=0.75;entryDx=0;entryDy=0;" edge="1" parent="WIyWlLk6GJQsqaUBKTNV-1" source="tNXuFwaImXzpJUykY29l-130" target="tNXuFwaImXzpJUykY29l-53">
          <mxGeometry relative="1" as="geometry" />
        </mxCell>
        <mxCell id="tNXuFwaImXzpJUykY29l-130" value="UD-UserCenter" style="rounded=0;whiteSpace=wrap;html=1;fontSize=12;glass=0;strokeWidth=1;shadow=0;fillColor=#d5e8d4;strokeColor=#82b366;" vertex="1" parent="WIyWlLk6GJQsqaUBKTNV-1">
          <mxGeometry x="1025" y="163" width="120" height="40" as="geometry" />
        </mxCell>
        <mxCell id="tNXuFwaImXzpJUykY29l-150" style="edgeStyle=orthogonalEdgeStyle;rounded=0;orthogonalLoop=1;jettySize=auto;html=1;exitX=0;exitY=0.5;exitDx=0;exitDy=0;entryX=1;entryY=0.5;entryDx=0;entryDy=0;" edge="1" parent="WIyWlLk6GJQsqaUBKTNV-1">
          <mxGeometry relative="1" as="geometry">
            <mxPoint x="1045" y="706" as="sourcePoint" />
            <mxPoint x="1005" y="706" as="targetPoint" />
          </mxGeometry>
        </mxCell>
        <mxCell id="tNXuFwaImXzpJUykY29l-138" value="" style="rounded=0;whiteSpace=wrap;html=1;fillColor=#fff2cc;strokeColor=#d6b656;" vertex="1" parent="WIyWlLk6GJQsqaUBKTNV-1">
          <mxGeometry x="1045" y="620" width="140" height="140" as="geometry" />
        </mxCell>
        <mxCell id="tNXuFwaImXzpJUykY29l-140" value="Local RTP" style="rounded=1;whiteSpace=wrap;html=1;fontSize=12;glass=0;strokeWidth=1;shadow=0;fillColor=#00FFFF;" vertex="1" parent="WIyWlLk6GJQsqaUBKTNV-1">
          <mxGeometry x="1055.5" y="708" width="120" height="40" as="geometry" />
        </mxCell>
        <mxCell id="tNXuFwaImXzpJUykY29l-142" value="远程调用RTP" style="rounded=1;whiteSpace=wrap;html=1;fontSize=12;glass=0;strokeWidth=1;shadow=0;" vertex="1" parent="WIyWlLk6GJQsqaUBKTNV-1">
          <mxGeometry x="1055.5" y="658" width="120" height="40" as="geometry" />
        </mxCell>
        <mxCell id="tNXuFwaImXzpJUykY29l-143" value="UD-Algo" style="text;html=1;resizable=0;autosize=1;align=center;verticalAlign=middle;points=[];fillColor=none;strokeColor=none;rounded=0;" vertex="1" parent="WIyWlLk6GJQsqaUBKTNV-1">
          <mxGeometry x="1046.5" y="628" width="60" height="20" as="geometry" />
        </mxCell>
        <mxCell id="tNXuFwaImXzpJUykY29l-146" style="edgeStyle=orthogonalEdgeStyle;rounded=0;orthogonalLoop=1;jettySize=auto;html=1;exitX=1;exitY=0.5;exitDx=0;exitDy=0;entryX=0;entryY=0.5;entryDx=0;entryDy=0;" edge="1" parent="WIyWlLk6GJQsqaUBKTNV-1">
          <mxGeometry relative="1" as="geometry">
            <mxPoint x="1005" y="678" as="sourcePoint" />
            <mxPoint x="1045" y="678" as="targetPoint" />
          </mxGeometry>
        </mxCell>
        <mxCell id="tNXuFwaImXzpJUykY29l-145" value="" style="rounded=0;whiteSpace=wrap;html=1;fontStyle=0;fillColor=none;dashed=1;strokeColor=#FF3333;strokeWidth=3;" vertex="1" parent="WIyWlLk6GJQsqaUBKTNV-1">
          <mxGeometry x="685" y="650" width="320" height="80" as="geometry" />
        </mxCell>
      </root>
    </mxGraphModel>
  </diagram>
</mxfile>
